<mxfile host="app.diagrams.net" agent="Mozilla/5.0 (Windows NT 10.0; Win64; x64) AppleWebKit/537.36 (KHTML, like Gecko) Chrome/134.0.0.0 Safari/537.36 Edg/134.0.0.0" version="26.2.7">
  <diagram name="Page-1" id="LlNeEQPjT-SVKzVCSlX5">
    <mxGraphModel dx="1295" dy="1770" grid="1" gridSize="10" guides="1" tooltips="1" connect="1" arrows="1" fold="1" page="1" pageScale="1" pageWidth="850" pageHeight="1100" math="0" shadow="0">
      <root>
        <mxCell id="0" />
        <mxCell id="1" parent="0" />
        <mxCell id="S8qRpLv72PC4PfVzQ5F6-33" style="edgeStyle=orthogonalEdgeStyle;rounded=0;orthogonalLoop=1;jettySize=auto;html=1;entryX=0;entryY=0.5;entryDx=0;entryDy=0;" edge="1" parent="1" source="S8qRpLv72PC4PfVzQ5F6-1" target="S8qRpLv72PC4PfVzQ5F6-2">
          <mxGeometry relative="1" as="geometry" />
        </mxCell>
        <mxCell id="S8qRpLv72PC4PfVzQ5F6-1" value="User" style="shape=umlActor;verticalLabelPosition=bottom;verticalAlign=top;html=1;outlineConnect=0;" vertex="1" parent="1">
          <mxGeometry x="70" y="250" width="30" height="60" as="geometry" />
        </mxCell>
        <mxCell id="S8qRpLv72PC4PfVzQ5F6-2" value="User infomation management" style="ellipse;whiteSpace=wrap;html=1;" vertex="1" parent="1">
          <mxGeometry x="200" y="240" width="120" height="80" as="geometry" />
        </mxCell>
        <mxCell id="S8qRpLv72PC4PfVzQ5F6-3" value="Display all necessary user&#39;s information" style="ellipse;whiteSpace=wrap;html=1;" vertex="1" parent="1">
          <mxGeometry x="400" y="120" width="120" height="80" as="geometry" />
        </mxCell>
        <mxCell id="S8qRpLv72PC4PfVzQ5F6-4" value="" style="endArrow=classic;html=1;rounded=0;exitX=0;exitY=0.5;exitDx=0;exitDy=0;entryX=1;entryY=0;entryDx=0;entryDy=0;" edge="1" parent="1" source="S8qRpLv72PC4PfVzQ5F6-3" target="S8qRpLv72PC4PfVzQ5F6-2">
          <mxGeometry width="50" height="50" relative="1" as="geometry">
            <mxPoint x="400" y="370" as="sourcePoint" />
            <mxPoint x="450" y="320" as="targetPoint" />
          </mxGeometry>
        </mxCell>
        <mxCell id="S8qRpLv72PC4PfVzQ5F6-5" value="&amp;lt;&amp;lt;extends&amp;gt;&amp;gt;" style="text;html=1;align=center;verticalAlign=middle;resizable=0;points=[];autosize=1;strokeColor=none;fillColor=none;rotation=-45;" vertex="1" parent="1">
          <mxGeometry x="310" y="170" width="90" height="30" as="geometry" />
        </mxCell>
        <mxCell id="S8qRpLv72PC4PfVzQ5F6-10" style="edgeStyle=orthogonalEdgeStyle;rounded=0;orthogonalLoop=1;jettySize=auto;html=1;exitX=1;exitY=0.5;exitDx=0;exitDy=0;entryX=0;entryY=0.5;entryDx=0;entryDy=0;dashed=1;" edge="1" parent="1" source="S8qRpLv72PC4PfVzQ5F6-6" target="S8qRpLv72PC4PfVzQ5F6-9">
          <mxGeometry relative="1" as="geometry">
            <mxPoint x="670" y="360" as="targetPoint" />
          </mxGeometry>
        </mxCell>
        <mxCell id="S8qRpLv72PC4PfVzQ5F6-12" value="&amp;lt;&amp;lt;include&amp;gt;&amp;gt;" style="edgeLabel;html=1;align=center;verticalAlign=middle;resizable=0;points=[];" vertex="1" connectable="0" parent="S8qRpLv72PC4PfVzQ5F6-10">
          <mxGeometry x="0.0733" relative="1" as="geometry">
            <mxPoint x="-14" as="offset" />
          </mxGeometry>
        </mxCell>
        <mxCell id="S8qRpLv72PC4PfVzQ5F6-6" value="Update user&#39;s information" style="ellipse;whiteSpace=wrap;html=1;" vertex="1" parent="1">
          <mxGeometry x="400" y="240" width="120" height="80" as="geometry" />
        </mxCell>
        <mxCell id="S8qRpLv72PC4PfVzQ5F6-7" value="" style="endArrow=classic;html=1;rounded=0;exitX=0;exitY=0.5;exitDx=0;exitDy=0;entryX=1;entryY=0.5;entryDx=0;entryDy=0;" edge="1" parent="1" source="S8qRpLv72PC4PfVzQ5F6-6" target="S8qRpLv72PC4PfVzQ5F6-2">
          <mxGeometry width="50" height="50" relative="1" as="geometry">
            <mxPoint x="400" y="370" as="sourcePoint" />
            <mxPoint x="450" y="320" as="targetPoint" />
          </mxGeometry>
        </mxCell>
        <mxCell id="S8qRpLv72PC4PfVzQ5F6-8" value="&amp;lt;&amp;lt;extends&amp;gt;&amp;gt;" style="text;html=1;align=center;verticalAlign=middle;resizable=0;points=[];autosize=1;strokeColor=none;fillColor=none;rotation=0;" vertex="1" parent="1">
          <mxGeometry x="320" y="250" width="90" height="30" as="geometry" />
        </mxCell>
        <mxCell id="S8qRpLv72PC4PfVzQ5F6-9" value="Update specific user&#39;s information" style="ellipse;whiteSpace=wrap;html=1;" vertex="1" parent="1">
          <mxGeometry x="640" y="240" width="120" height="80" as="geometry" />
        </mxCell>
        <mxCell id="S8qRpLv72PC4PfVzQ5F6-13" value="update first name" style="ellipse;whiteSpace=wrap;html=1;" vertex="1" parent="1">
          <mxGeometry x="840" y="145" width="120" height="80" as="geometry" />
        </mxCell>
        <mxCell id="S8qRpLv72PC4PfVzQ5F6-18" style="edgeStyle=orthogonalEdgeStyle;rounded=0;orthogonalLoop=1;jettySize=auto;html=1;entryX=1;entryY=0.5;entryDx=0;entryDy=0;" edge="1" parent="1" source="S8qRpLv72PC4PfVzQ5F6-14" target="S8qRpLv72PC4PfVzQ5F6-9">
          <mxGeometry relative="1" as="geometry" />
        </mxCell>
        <mxCell id="S8qRpLv72PC4PfVzQ5F6-14" value="update last name" style="ellipse;whiteSpace=wrap;html=1;" vertex="1" parent="1">
          <mxGeometry x="840" y="240" width="120" height="80" as="geometry" />
        </mxCell>
        <mxCell id="S8qRpLv72PC4PfVzQ5F6-15" value="update sex" style="ellipse;whiteSpace=wrap;html=1;" vertex="1" parent="1">
          <mxGeometry x="840" y="340" width="120" height="80" as="geometry" />
        </mxCell>
        <mxCell id="S8qRpLv72PC4PfVzQ5F6-16" value="update date of birth" style="ellipse;whiteSpace=wrap;html=1;" vertex="1" parent="1">
          <mxGeometry x="840" y="440" width="120" height="80" as="geometry" />
        </mxCell>
        <mxCell id="S8qRpLv72PC4PfVzQ5F6-19" value="" style="endArrow=classic;html=1;rounded=0;exitX=0;exitY=0.5;exitDx=0;exitDy=0;entryX=1;entryY=0;entryDx=0;entryDy=0;" edge="1" parent="1" source="S8qRpLv72PC4PfVzQ5F6-13" target="S8qRpLv72PC4PfVzQ5F6-9">
          <mxGeometry width="50" height="50" relative="1" as="geometry">
            <mxPoint x="580" y="430" as="sourcePoint" />
            <mxPoint x="630" y="380" as="targetPoint" />
          </mxGeometry>
        </mxCell>
        <mxCell id="S8qRpLv72PC4PfVzQ5F6-20" value="" style="endArrow=classic;html=1;rounded=0;exitX=0;exitY=0.5;exitDx=0;exitDy=0;entryX=1;entryY=1;entryDx=0;entryDy=0;" edge="1" parent="1" source="S8qRpLv72PC4PfVzQ5F6-15" target="S8qRpLv72PC4PfVzQ5F6-9">
          <mxGeometry width="50" height="50" relative="1" as="geometry">
            <mxPoint x="580" y="430" as="sourcePoint" />
            <mxPoint x="630" y="380" as="targetPoint" />
          </mxGeometry>
        </mxCell>
        <mxCell id="S8qRpLv72PC4PfVzQ5F6-21" value="" style="endArrow=classic;html=1;rounded=0;exitX=0;exitY=0.5;exitDx=0;exitDy=0;entryX=1;entryY=1;entryDx=0;entryDy=0;" edge="1" parent="1" source="S8qRpLv72PC4PfVzQ5F6-16" target="S8qRpLv72PC4PfVzQ5F6-9">
          <mxGeometry width="50" height="50" relative="1" as="geometry">
            <mxPoint x="580" y="430" as="sourcePoint" />
            <mxPoint x="630" y="380" as="targetPoint" />
          </mxGeometry>
        </mxCell>
        <mxCell id="S8qRpLv72PC4PfVzQ5F6-22" value="Update account currency" style="ellipse;whiteSpace=wrap;html=1;" vertex="1" parent="1">
          <mxGeometry x="840" y="540" width="120" height="80" as="geometry" />
        </mxCell>
        <mxCell id="S8qRpLv72PC4PfVzQ5F6-23" value="" style="endArrow=classic;html=1;rounded=0;exitX=0;exitY=0.5;exitDx=0;exitDy=0;entryX=1;entryY=1;entryDx=0;entryDy=0;" edge="1" parent="1" source="S8qRpLv72PC4PfVzQ5F6-22" target="S8qRpLv72PC4PfVzQ5F6-9">
          <mxGeometry width="50" height="50" relative="1" as="geometry">
            <mxPoint x="580" y="580" as="sourcePoint" />
            <mxPoint x="630" y="530" as="targetPoint" />
          </mxGeometry>
        </mxCell>
        <mxCell id="S8qRpLv72PC4PfVzQ5F6-24" value="Delete user&#39;s account" style="ellipse;whiteSpace=wrap;html=1;" vertex="1" parent="1">
          <mxGeometry x="400" y="360" width="120" height="80" as="geometry" />
        </mxCell>
        <mxCell id="S8qRpLv72PC4PfVzQ5F6-26" value="" style="endArrow=classic;html=1;rounded=0;exitX=0;exitY=0.5;exitDx=0;exitDy=0;entryX=1;entryY=1;entryDx=0;entryDy=0;" edge="1" parent="1" source="S8qRpLv72PC4PfVzQ5F6-24" target="S8qRpLv72PC4PfVzQ5F6-2">
          <mxGeometry width="50" height="50" relative="1" as="geometry">
            <mxPoint x="490" y="370" as="sourcePoint" />
            <mxPoint x="540" y="320" as="targetPoint" />
          </mxGeometry>
        </mxCell>
        <mxCell id="S8qRpLv72PC4PfVzQ5F6-27" value="&amp;lt;&amp;lt;extends&amp;gt;&amp;gt;" style="text;html=1;align=center;verticalAlign=middle;resizable=0;points=[];autosize=1;strokeColor=none;fillColor=none;rotation=45;" vertex="1" parent="1">
          <mxGeometry x="330" y="340" width="90" height="30" as="geometry" />
        </mxCell>
        <mxCell id="S8qRpLv72PC4PfVzQ5F6-28" value="&amp;lt;&amp;lt;extends&amp;gt;&amp;gt;" style="text;html=1;align=center;verticalAlign=middle;resizable=0;points=[];autosize=1;strokeColor=none;fillColor=none;rotation=-30;" vertex="1" parent="1">
          <mxGeometry x="760" y="180" width="90" height="30" as="geometry" />
        </mxCell>
        <mxCell id="S8qRpLv72PC4PfVzQ5F6-29" value="&amp;lt;&amp;lt;extends&amp;gt;&amp;gt;" style="text;html=1;align=center;verticalAlign=middle;resizable=0;points=[];autosize=1;strokeColor=none;fillColor=none;rotation=0;" vertex="1" parent="1">
          <mxGeometry x="760" y="250" width="90" height="30" as="geometry" />
        </mxCell>
        <mxCell id="S8qRpLv72PC4PfVzQ5F6-30" value="&amp;lt;&amp;lt;extends&amp;gt;&amp;gt;" style="text;html=1;align=center;verticalAlign=middle;resizable=0;points=[];autosize=1;strokeColor=none;fillColor=none;rotation=30;" vertex="1" parent="1">
          <mxGeometry x="770" y="330" width="90" height="30" as="geometry" />
        </mxCell>
        <mxCell id="S8qRpLv72PC4PfVzQ5F6-31" value="&amp;lt;&amp;lt;extends&amp;gt;&amp;gt;" style="text;html=1;align=center;verticalAlign=middle;resizable=0;points=[];autosize=1;strokeColor=none;fillColor=none;rotation=65;" vertex="1" parent="1">
          <mxGeometry x="780" y="410" width="90" height="30" as="geometry" />
        </mxCell>
        <mxCell id="S8qRpLv72PC4PfVzQ5F6-32" value="&amp;lt;&amp;lt;extends&amp;gt;&amp;gt;" style="text;html=1;align=center;verticalAlign=middle;resizable=0;points=[];autosize=1;strokeColor=none;fillColor=none;rotation=65;" vertex="1" parent="1">
          <mxGeometry x="780" y="500" width="90" height="30" as="geometry" />
        </mxCell>
        <mxCell id="S8qRpLv72PC4PfVzQ5F6-34" value="Spring" style="shape=umlActor;verticalLabelPosition=bottom;verticalAlign=top;html=1;outlineConnect=0;" vertex="1" parent="1">
          <mxGeometry x="630" y="-60" width="30" height="60" as="geometry" />
        </mxCell>
        <mxCell id="S8qRpLv72PC4PfVzQ5F6-35" value="" style="endArrow=none;html=1;rounded=0;exitX=1;exitY=0.5;exitDx=0;exitDy=0;" edge="1" parent="1" source="S8qRpLv72PC4PfVzQ5F6-3">
          <mxGeometry width="50" height="50" relative="1" as="geometry">
            <mxPoint x="510" y="220" as="sourcePoint" />
            <mxPoint x="640" y="30" as="targetPoint" />
          </mxGeometry>
        </mxCell>
        <mxCell id="S8qRpLv72PC4PfVzQ5F6-36" value="" style="endArrow=none;html=1;rounded=0;exitX=1;exitY=0;exitDx=0;exitDy=0;" edge="1" parent="1" source="S8qRpLv72PC4PfVzQ5F6-6">
          <mxGeometry width="50" height="50" relative="1" as="geometry">
            <mxPoint x="530" y="170" as="sourcePoint" />
            <mxPoint x="640" y="30" as="targetPoint" />
          </mxGeometry>
        </mxCell>
        <mxCell id="S8qRpLv72PC4PfVzQ5F6-37" value="" style="endArrow=none;html=1;rounded=0;exitX=1;exitY=0;exitDx=0;exitDy=0;" edge="1" parent="1" source="S8qRpLv72PC4PfVzQ5F6-24">
          <mxGeometry width="50" height="50" relative="1" as="geometry">
            <mxPoint x="540" y="180" as="sourcePoint" />
            <mxPoint x="640" y="30" as="targetPoint" />
          </mxGeometry>
        </mxCell>
        <mxCell id="S8qRpLv72PC4PfVzQ5F6-44" style="edgeStyle=orthogonalEdgeStyle;rounded=0;orthogonalLoop=1;jettySize=auto;html=1;exitX=1;exitY=0.5;exitDx=0;exitDy=0;entryX=0;entryY=0.5;entryDx=0;entryDy=0;dashed=1;" edge="1" parent="1" source="S8qRpLv72PC4PfVzQ5F6-38" target="S8qRpLv72PC4PfVzQ5F6-43">
          <mxGeometry relative="1" as="geometry" />
        </mxCell>
        <mxCell id="S8qRpLv72PC4PfVzQ5F6-45" value="&amp;lt;&amp;lt;include&amp;gt;&amp;gt;" style="edgeLabel;html=1;align=center;verticalAlign=middle;resizable=0;points=[];" vertex="1" connectable="0" parent="S8qRpLv72PC4PfVzQ5F6-44">
          <mxGeometry x="-0.0561" relative="1" as="geometry">
            <mxPoint as="offset" />
          </mxGeometry>
        </mxCell>
        <mxCell id="S8qRpLv72PC4PfVzQ5F6-38" value="Update user&#39;s image" style="ellipse;whiteSpace=wrap;html=1;" vertex="1" parent="1">
          <mxGeometry x="840" y="50" width="120" height="80" as="geometry" />
        </mxCell>
        <mxCell id="S8qRpLv72PC4PfVzQ5F6-39" value="" style="endArrow=classic;html=1;rounded=0;exitX=0;exitY=0.5;exitDx=0;exitDy=0;entryX=1;entryY=0;entryDx=0;entryDy=0;" edge="1" parent="1" source="S8qRpLv72PC4PfVzQ5F6-38" target="S8qRpLv72PC4PfVzQ5F6-9">
          <mxGeometry width="50" height="50" relative="1" as="geometry">
            <mxPoint x="470" y="330" as="sourcePoint" />
            <mxPoint x="520" y="280" as="targetPoint" />
          </mxGeometry>
        </mxCell>
        <mxCell id="S8qRpLv72PC4PfVzQ5F6-42" value="&amp;lt;&amp;lt;extends&amp;gt;&amp;gt;" style="text;html=1;align=center;verticalAlign=middle;resizable=0;points=[];autosize=1;strokeColor=none;fillColor=none;rotation=-57;" vertex="1" parent="1">
          <mxGeometry x="760" y="110" width="90" height="30" as="geometry" />
        </mxCell>
        <mxCell id="S8qRpLv72PC4PfVzQ5F6-43" value="Upload image" style="ellipse;whiteSpace=wrap;html=1;" vertex="1" parent="1">
          <mxGeometry x="1050" y="50" width="120" height="80" as="geometry" />
        </mxCell>
        <mxCell id="S8qRpLv72PC4PfVzQ5F6-46" value="" style="rounded=0;whiteSpace=wrap;html=1;fillColor=none;" vertex="1" parent="1">
          <mxGeometry x="160" y="40" width="1040" height="610" as="geometry" />
        </mxCell>
      </root>
    </mxGraphModel>
  </diagram>
</mxfile>
